<svg xmlns="http://www.w3.org/2000/svg" width="32" height="32" viewBox="0 0 32 32"><g transform="matrix(3.77953 0 0 3.77953 2223.454 -2358.832)"><path style="line-height:normal;text-indent:0;text-align:start;text-decoration-line:none;text-decoration-style:solid;text-decoration-color:#000;text-transform:none;block-progression:tb;white-space:normal;isolation:auto;mix-blend-mode:normal;solid-color:#000;solid-opacity:1" fill-rule="evenodd" d="m -580.65834,624.73649 -6.82233,0.0977 a 0.1323049,0.1323049 0 0 0 -0.12867,0.12867 c 0,0 -0.0283,1.62395 -0.0253,2.43964 0.005,1.44105 0.0724,4.31447 0.0724,4.31447 a 0.1323049,0.1323049 0 0 0 0.12505,0.12868 c 0,0 1.42632,0.0886 2.15026,0.0977 1.55994,0.0191 4.66018,-0.0977 4.66018,-0.0977 a 0.1323049,0.1323049 0 0 0 0.12661,-0.13075 c 0,0 0.0235,-1.44428 0.0238,-2.16989 7e-4,-1.56203 -0.0491,-4.67982 -0.0491,-4.67982 a 0.1323049,0.1323049 0 0 0 -0.13281,-0.12867 z" color="#000" enable-background="accumulate" font-family="sans-serif" font-weight="400" overflow="visible"/><path style="line-height:normal;text-indent:0;text-align:start;text-decoration-line:none;text-decoration-style:solid;text-decoration-color:#000;text-transform:none;block-progression:tb;white-space:normal;isolation:auto;mix-blend-mode:normal;solid-color:#000;solid-opacity:1" fill="#fd982f" fill-rule="evenodd" d="m -580.78702,625.0021 c 0.002,0.0901 0.0146,0.96987 0.0269,2.00091 l -1.90427,0.0202 -0.0491,-1.99368 1.92649,-0.0274 z" color="#000" enable-background="accumulate" font-family="sans-serif" font-weight="400" overflow="visible"/><path style="line-height:normal;text-indent:0;text-align:start;text-decoration-line:none;text-decoration-style:solid;text-decoration-color:#000;text-transform:none;block-progression:tb;white-space:normal;isolation:auto;mix-blend-mode:normal;solid-color:#000;solid-opacity:1" fill="#fc3275" fill-rule="evenodd" d="m -582.97913,625.03311 0.0501,1.99264 -2.13476,0.0227 0.007,-1.98541 2.07791,-0.03 z" color="#000" enable-background="accumulate" font-family="sans-serif" font-weight="400" overflow="visible"/><path style="line-height:normal;text-indent:0;text-align:start;text-decoration-line:none;text-decoration-style:solid;text-decoration-color:#000;text-transform:none;block-progression:tb;white-space:normal;isolation:auto;mix-blend-mode:normal;solid-color:#000;solid-opacity:1" fill="#9cc055" fill-rule="evenodd" d="m -585.32059,625.0667 -0.007,1.98437 -2.04122,0.0217 c 0.002,-0.78094 0.0184,-1.83917 0.0207,-1.97714 l 2.02727,-0.0289 z" color="#000" enable-background="accumulate" font-family="sans-serif" font-weight="400" overflow="visible"/><path style="line-height:normal;text-indent:0;text-align:start;text-decoration-line:none;text-decoration-style:solid;text-decoration-color:#000;text-transform:none;block-progression:tb;white-space:normal;isolation:auto;mix-blend-mode:normal;solid-color:#000;solid-opacity:1" fill="#fd3533" fill-rule="evenodd" d="m -580.75808,627.26656 c 0.008,0.7344 0.0157,1.49863 0.0165,2.1022 l -1.86345,0.0527 -0.0527,-2.13423 1.89962,-0.0207 z" color="#000" enable-background="accumulate" font-family="sans-serif" font-weight="400" overflow="visible"/><path style="line-height:normal;text-indent:0;text-align:start;text-decoration-line:none;text-decoration-style:solid;text-decoration-color:#000;text-transform:none;block-progression:tb;white-space:normal;isolation:auto;mix-blend-mode:normal;solid-color:#000;solid-opacity:1" fill="#fd982f" fill-rule="evenodd" d="m -582.92281,627.29034 0.0538,2.13837 -2.20349,0.0625 0.008,-2.17765 2.14198,-0.0232 z" color="#000" enable-background="accumulate" font-family="sans-serif" font-weight="400" overflow="visible"/><path style="line-height:normal;text-indent:0;text-align:start;text-decoration-line:none;text-decoration-style:solid;text-decoration-color:#000;text-transform:none;block-progression:tb;white-space:normal;isolation:auto;mix-blend-mode:normal;solid-color:#000;solid-opacity:1" fill="#ffe625" fill-rule="evenodd" d="m -585.32834,627.31617 -0.008,2.1823 -2.00402,0.0568 c -0.014,-0.75022 -0.0289,-1.56804 -0.031,-2.1549 -7e-5,-0.0172 5.5e-4,-0.0442 5.2e-4,-0.062 l 2.04225,-0.0222 z" color="#000" enable-background="accumulate" font-family="sans-serif" font-weight="400" overflow="visible"/><path style="line-height:normal;text-indent:0;text-align:start;text-decoration-line:none;text-decoration-style:solid;text-decoration-color:#000;text-transform:none;block-progression:tb;white-space:normal;isolation:auto;mix-blend-mode:normal;solid-color:#000;solid-opacity:1" fill="#fd982f" fill-rule="evenodd" d="m -580.74102,629.63283 c -0.002,0.68946 -0.0204,1.80532 -0.0227,1.9513 -0.0816,0.003 -0.85145,0.0312 -1.78594,0.0563 l -0.0486,-1.95492 1.85726,-0.0527 z" color="#000" enable-background="accumulate" font-family="sans-serif" font-weight="400" overflow="visible"/><path style="line-height:normal;text-indent:0;text-align:start;text-decoration-line:none;text-decoration-style:solid;text-decoration-color:#000;text-transform:none;block-progression:tb;white-space:normal;isolation:auto;mix-blend-mode:normal;solid-color:#000;solid-opacity:1" fill="#fd3533" fill-rule="evenodd" d="m -582.86234,629.69329 0.0491,1.95285 c -0.78143,0.0198 -1.60999,0.0343 -2.26705,0.0305 l 0.007,-1.92029 2.21124,-0.063 z" color="#000" enable-background="accumulate" font-family="sans-serif" font-weight="400" overflow="visible"/><path style="line-height:normal;text-indent:0;text-align:start;text-decoration-line:none;text-decoration-style:solid;text-decoration-color:#000;text-transform:none;block-progression:tb;white-space:normal;isolation:auto;mix-blend-mode:normal;solid-color:#000;solid-opacity:1" fill="#00a1f1" fill-rule="evenodd" d="m -585.33713,629.76357 -0.007,1.91203 c -0.67444,-0.0109 -1.8102,-0.0791 -1.95492,-0.0879 -0.002,-0.0822 -0.0199,-0.85184 -0.0377,-1.76682 l 1.99936,-0.0574 z" color="#000" enable-background="accumulate" font-family="sans-serif" font-weight="400" overflow="visible"/><path fill="none" stroke="#000" stroke-linecap="round" stroke-linejoin="round" stroke-width=".265" d="M-583.99543 625.55878l.0172.79238M-582.06617 625.55016l.82683.81822M-582.16092 626.35976l.90435-.73208M-584.40884 627.93591l.82682.79234M-584.46051 628.77995l.80959-.84404M-582.11784 630.34745l.93017.8785M-582.06617 631.26042l.70625-.93019M-586.17443 628.84885l-.0259-1.06799-.55121.76655.78375.0517M-586.63092 626.4631l.60288-.92154-.74067.0344"/><path fill="none" stroke="#000" stroke-width=".265" d="m -586.46092,630.16036 c -0.0775,0.0266 -0.14837,0.09 -0.1827,0.16444 -0.0315,0.0682 -0.0407,0.15866 -0.006,0.22532 0.0932,0.17933 0.3948,0.16582 0.50546,0.33496 0.0451,0.069 0.0765,0.16848 0.0426,0.24361 -0.048,0.10631 -0.18179,0.18169 -0.29843,0.18272 -0.12011,10e-4 -0.24875,-0.0797 -0.31059,-0.18272 -0.0492,-0.0819 -0.0608,-0.20405 -0.0122,-0.28623 0.10958,-0.18517 0.4334,-0.12742 0.57854,-0.28625 0.0455,-0.0498 0.0814,-0.12182 0.0731,-0.18878 -0.01,-0.0766 -0.0667,-0.15097 -0.13398,-0.18881 -0.0745,-0.0419 -0.17495,-0.046 -0.2558,-0.0183 z"/></g></svg>